# xmcd
#
# Track frame offsets: 
#        150
#        17733
#        29736
#        54565
#        69784
#        83527
#        105651
#        125912
#        138825
#        148969
#        180688
#
# Disc length: 2574 seconds
#
# Revision: 0
# Processed by: cddbd v1.5.2PL0 Copyright (c) Steve Scherf et al.
# Submitted via: ExactAudioCopyFreeDBPlugin 1.0
#
DISCID=9a0a0c0b
DTITLE=The Dad Horse Experience - Too Close To Heaven
DYEAR=2008
DGENRE=Country
TTITLE0=Through The Hole
TTITLE1=Gates Of Heaven
TTITLE2=Falling
TTITLE3=Lord Must Fix My Soul
TTITLE4=Schwarz Gruen Weiss
TTITLE5=Were U There (In Bookholzberg)
TTITLE6=Find My Body Down
TTITLE7=Dried Out River
TTITLE8=Away
TTITLE9=Reach Out Your Hand
TTITLE10=Too Close To Heaven
EXTD=
EXTT0=
EXTT1=
EXTT2=
EXTT3=
EXTT4=
EXTT5=
EXTT6=
EXTT7=
EXTT8=
EXTT9=
EXTT10=
PLAYORDER=
